<svg width="118" height="164" viewBox="0 0 118 164" fill="none" xmlns="http://www.w3.org/2000/svg">
<path opacity="0.5" d="M78.0406 14.7706C83.6414 13.0322 99.5013 13.8842 108.502 16.3968C112.725 17.5413 118.774 19.8087 121.959 21.3944C127.348 24.1262 127.91 24.224 130.535 22.6179C137.549 18.4409 157.86 10.6009 170.964 6.98905C185.735 2.97483 207.299 -0.620354 209.561 0.592589C211.52 1.59742 210.425 3.99252 207.818 4.27378C193.21 5.64598 167.111 11.1083 160.292 14.1607C158.728 14.9483 158.352 16.9457 157.929 27.9067C157.409 41.4507 155.352 49.2169 150.977 54.63C147.976 58.2336 143.24 60.2779 139.556 59.6086C136.123 58.9549 131.791 54.457 130.774 50.4793C129.208 44.1314 132.384 33.5927 138.231 25.8078C141.813 20.9771 141.427 21.0796 127.964 28.4581C117.504 34.2536 103.414 43.6139 97.6702 48.6901L93.9302 51.9955L97.301 58.7704C104.322 72.9058 105.893 85.3159 101.922 94.4163C97.1387 105.424 86.0785 108.657 81.2165 100.464C78.2994 95.5482 80.1436 76.9081 84.8741 63.6869L86.7175 58.3702L83.2446 61.4395C74.2954 69.3489 59.8391 87.7163 51.4494 101.911C46.6597 109.951 46.5696 110.388 45.9721 120.075C44.9944 135.927 39.7358 147.474 29.1838 156.8C24.442 160.991 22.6031 162.14 19.1441 162.937C14.7222 163.99 9.43347 162.717 7.01344 159.979C2.40948 154.77 4.98726 143.689 14.0853 130.295C18.7461 123.321 30.5795 113.695 37.8189 110.984C42.7906 109.207 43.0577 108.971 44.8515 105.483C45.9154 103.591 49.0091 98.4774 51.7379 94.1625C56.0726 87.3577 56.3785 86.4925 54.2879 87.6265C39.2455 96.044 15.4211 100.447 6.31292 96.6017C-1.56045 93.2115 -1.82339 84.1656 5.93142 77.1929C11.5491 72.1089 19.7406 70.341 33.7724 71.1433C40.0629 71.5313 48.6972 72.8216 53.1053 74.0406C57.3875 75.2519 61.544 76.4554 62.4169 76.6356C63.7853 76.9725 64.7203 76.1462 69.8222 70.2096C75.6666 63.4979 97.6264 43.257 103.619 39.2696C105.265 38.1714 108.039 36.1956 109.752 35.0383L112.978 32.901L105.195 34.189C95.9377 35.8281 83.3381 36.377 77.7077 35.5245C64.2646 33.3693 64.4611 18.9214 78.0406 14.7706ZM71.9432 24.5607C70.513 30.3449 78.1378 32.6464 94.8844 31.4061C103.509 30.8015 115.648 28.5192 114.88 27.651C114.349 27.05 102.004 26.5411 96.4887 26.8955C93.9492 27.1178 92.5218 26.714 92.1396 25.7433C91.8756 24.9061 91.9299 24.0254 92.2638 23.7303C92.9984 23.081 102.956 22.3692 109.639 22.5288L114.369 22.6311L110.472 21.3173C99.8307 17.7563 86.6362 16.6899 79.0582 18.7483C74.4359 19.9786 72.7072 21.3875 71.9432 24.5607ZM4.66137 86.523C4.35097 91.5554 7.08469 93.3027 15.5295 93.571C24.1001 93.847 34.1275 92.0028 43.5165 88.225C53.0235 84.5807 54.064 83.0663 46.6895 83.8743C37.4635 85.0101 28.0122 84.6798 27.7791 83.3394C27.3923 81.4212 29.691 79.9844 32.451 80.2809C36.1508 80.6985 53.7113 79.5716 53.8169 78.8835C53.879 77.877 39.1342 75.3258 30.6972 74.9317C15.8361 74.2677 5.12695 78.9744 4.66137 86.523ZM84.8252 80.8592C83.229 90.3587 83.3877 96.9986 85.3356 99.2025C86.9883 101.073 92.2956 101.021 94.4995 99.0732C97.3045 96.5941 100.274 88.3791 100.191 83.575C100.026 79.0816 96.7687 66.378 95.4111 64.842C94.9389 64.3077 94.6842 65.3655 94.8194 67.2681C94.9624 69.045 95.0527 73.7232 94.9457 77.5053C94.7659 83.4929 94.4444 84.6097 92.7778 85.0121C91.1113 85.4144 90.9575 84.8366 90.9043 77.5086C90.8231 69.6106 90.3382 63.1399 89.6889 62.4053C89.0397 61.6707 86.4727 71.5523 84.8252 80.8592ZM14.4521 136.632C8.37497 147.118 7.46211 155.776 12.1032 158.335C19.6784 162.465 31.3037 153.142 37.9429 137.639C40.3718 132.043 42.948 118.941 41.6899 118.864C41.4382 118.848 38.5759 123.281 35.3331 128.764C32.0312 134.18 29.0353 138.731 28.5243 138.826C25.6509 139.343 26.533 136.304 32.1862 126.549C35.5703 120.823 38.1531 115.804 37.917 115.537C37.0316 114.535 30.3126 119.046 24.1451 124.854C19.5805 129.245 16.7212 132.605 14.4521 136.632ZM136.714 36.0699C134.164 42.6059 134.359 49.6901 137.133 52.829C141.619 57.9046 147.592 55.2421 151.229 46.4368C152.936 42.3114 155.224 18.5208 153.907 18.3765C152.582 18.3579 148.372 28.2644 147.767 32.9629C147.091 38.7937 145.634 40.9139 143.864 38.9103C143.155 38.1089 143.208 35.2075 144.085 31.2204C144.873 27.6697 145.377 24.6068 145.2 24.4064C144.566 23.4202 138.421 31.9445 136.714 36.0699Z" fill="white"/>
</svg>
